<svg xmlns="http://www.w3.org/2000/svg" width="195.646" height="65.353" viewBox="0 0 195.646 65.353">
  <g id="Group_3403" data-name="Group 3403" transform="translate(-98.428 -366.139)">
    <g id="Group_3399" data-name="Group 3399" transform="translate(100.418 425.38)">
      <path id="Path_15807" data-name="Path 15807" d="M108.341,633.445c.043,0,.073.038.091.113l1.05,4.7q.007.061.052.061h.033c.026,0,.043-.02.052-.061l1.05-4.3a.793.793,0,0,1,.188-.4.421.421,0,0,1,.292-.1h.642a.443.443,0,0,1,.327.113.863.863,0,0,1,.185.393l1.076,4.3q.013.061.052.061h.039q.039,0,.052-.061l1.024-4.7a.146.146,0,0,1,.042-.092.1.1,0,0,1,.062-.022h.875c.034,0,.055.02.062.061a.357.357,0,0,1-.01.14l-1.245,5.247a1.411,1.411,0,0,1-.2.528.364.364,0,0,1-.3.135h-.758a.35.35,0,0,1-.295-.14,1.563,1.563,0,0,1-.2-.524l-1.018-4.147c0-.041-.022-.061-.052-.061h-.026c-.03,0-.048.021-.052.061l-1.031,4.147a1.559,1.559,0,0,1-.2.524.351.351,0,0,1-.295.14h-.739a.615.615,0,0,1-.191-.026.323.323,0,0,1-.146-.1.656.656,0,0,1-.113-.2,2.666,2.666,0,0,1-.094-.332l-1.193-5.247a.388.388,0,0,1-.01-.144.059.059,0,0,1,.062-.057Z" transform="translate(-107.408 -633.445)" fill="#fff"/>
      <path id="Path_15808" data-name="Path 15808" d="M150.713,633.445q.149,0,.149.192v.83q0,.192-.149.192h-2.833a1.3,1.3,0,0,0-.418.057.542.542,0,0,0-.266.192.845.845,0,0,0-.139.367,3.531,3.531,0,0,0-.039.572v.087h3.663c.1,0,.142.064.142.192v.69q0,.192-.142.192h-3.663v.148a3.527,3.527,0,0,0,.039.572.842.842,0,0,0,.139.367.54.54,0,0,0,.266.192,1.3,1.3,0,0,0,.418.057h2.833c.1,0,.149.064.149.192v.83q0,.192-.149.192h-2.852a2.513,2.513,0,0,1-.836-.122,1.219,1.219,0,0,1-.561-.4,1.776,1.776,0,0,1-.318-.716,4.892,4.892,0,0,1-.1-1.07v-1.5a4.835,4.835,0,0,1,.1-1.065,1.775,1.775,0,0,1,.318-.711,1.247,1.247,0,0,1,.561-.4,2.428,2.428,0,0,1,.836-.127Z" transform="translate(-137.483 -633.445)" fill="#fff"/>
      <path id="Path_15809" data-name="Path 15809" d="M182.649,633.445a.64.64,0,0,1,.415.135,1.346,1.346,0,0,1,.331.528l2.146,5.248a.236.236,0,0,1,.016.144q-.016.057-.094.057h-.823a.148.148,0,0,1-.149-.113l-.46-1.126h-3.047l-.447,1.126a.155.155,0,0,1-.149.113h-.843q-.084,0-.1-.057a.235.235,0,0,1,.016-.144l2.126-5.248a1.467,1.467,0,0,1,.318-.528.536.536,0,0,1,.363-.135Zm-1.257,3.859h2.23l-1.031-2.558c-.017-.041-.041-.061-.071-.061h-.039c-.03,0-.054.021-.071.061Z" transform="translate(-163.474 -633.445)" fill="#fff"/>
      <path id="Path_15810" data-name="Path 15810" d="M209.078,633.445q.143,0,.142.192v3.484a3.317,3.317,0,0,0,.042.58.906.906,0,0,0,.139.367.524.524,0,0,0,.263.192,1.306,1.306,0,0,0,.418.057h2.625q.143,0,.143.192v.855q0,.192-.143.192h-2.664a2.513,2.513,0,0,1-.836-.122,1.219,1.219,0,0,1-.561-.4,1.772,1.772,0,0,1-.318-.716,4.877,4.877,0,0,1-.1-1.07v-3.615q0-.192.149-.192Z" transform="translate(-185.885 -633.445)" fill="#fff"/>
      <path id="Path_15811" data-name="Path 15811" d="M228.935,633.445q.065,0,.091.113l1.05,4.7q.006.061.052.061h.033q.039,0,.052-.061l1.05-4.3a.792.792,0,0,1,.188-.4.42.42,0,0,1,.292-.1h.642a.444.444,0,0,1,.327.113.861.861,0,0,1,.185.393l1.076,4.3q.013.061.052.061h.039q.039,0,.052-.061l1.024-4.7a.146.146,0,0,1,.042-.092.1.1,0,0,1,.062-.022h.875c.035,0,.055.02.062.061a.349.349,0,0,1-.01.14l-1.244,5.247a1.411,1.411,0,0,1-.2.528.364.364,0,0,1-.3.135h-.758a.351.351,0,0,1-.295-.14,1.559,1.559,0,0,1-.2-.524l-1.018-4.147c0-.041-.022-.061-.052-.061h-.026c-.03,0-.048.021-.052.061l-1.031,4.147a1.559,1.559,0,0,1-.2.524.351.351,0,0,1-.295.14h-.739a.615.615,0,0,1-.191-.026.323.323,0,0,1-.146-.1.656.656,0,0,1-.113-.2,2.668,2.668,0,0,1-.094-.332l-1.193-5.247a.383.383,0,0,1-.01-.144.059.059,0,0,1,.062-.057Z" transform="translate(-201.275 -633.445)" fill="#fff"/>
      <path id="Path_15812" data-name="Path 15812" d="M265.951,633.445a.64.64,0,0,1,.415.135,1.346,1.346,0,0,1,.331.528l2.146,5.248a.237.237,0,0,1,.016.144q-.016.057-.094.057h-.823a.148.148,0,0,1-.149-.113l-.46-1.126h-3.047l-.447,1.126a.155.155,0,0,1-.149.113h-.843c-.056,0-.09-.019-.1-.057a.237.237,0,0,1,.016-.144l2.126-5.248a1.461,1.461,0,0,1,.318-.528.535.535,0,0,1,.363-.135Zm-1.257,3.859h2.23l-1.031-2.558c-.017-.041-.041-.061-.071-.061h-.039c-.03,0-.054.021-.071.061Z" transform="translate(-228.315 -633.445)" fill="#fff"/>
      <path id="Path_15813" data-name="Path 15813" d="M287.146,633.445a.167.167,0,0,1,.156.1l1.731,3.152,1.744-3.152a.166.166,0,0,1,.156-.1h.849a.073.073,0,0,1,.071.057.145.145,0,0,1-.013.118l-2.327,4.069v1.676q0,.192-.143.192h-.7q-.149,0-.149-.192v-1.676l-2.3-4.069a.154.154,0,0,1-.016-.118.071.071,0,0,1,.075-.057Z" transform="translate(-246.574 -633.445)" fill="#fff"/>
      <path id="Path_15814" data-name="Path 15814" d="M317.262,633.445q.143,0,.143.192v.83q0,.192-.143.192h-3.248a.283.283,0,0,0-.266.131.7.7,0,0,0-.078.358v.3q0,.489.337.489h2.431a.986.986,0,0,1,.849.389,1.86,1.86,0,0,1,.285,1.113v.7a1.744,1.744,0,0,1-.279,1.03.992.992,0,0,1-.869.393h-3.591q-.149,0-.149-.192v-.83c0-.128.05-.192.149-.192h3.4a.284.284,0,0,0,.266-.131.7.7,0,0,0,.078-.358V637.5q0-.489-.337-.489h-2.431a.985.985,0,0,1-.849-.389,1.858,1.858,0,0,1-.285-1.113v-.637a1.744,1.744,0,0,1,.279-1.03.992.992,0,0,1,.869-.393Z" transform="translate(-267.186 -633.445)" fill="#fff"/>
      <path id="Path_15815" data-name="Path 15815" d="M351.569,633.445a1.224,1.224,0,0,1,1.07.454,2.31,2.31,0,0,1,.324,1.345v.5a2.6,2.6,0,0,1-.227,1.188,1.068,1.068,0,0,1-.739.559l1.108,1.851a.175.175,0,0,1,.02.131.093.093,0,0,1-.1.087h-.836a.19.19,0,0,1-.117-.026.275.275,0,0,1-.065-.087l-1.024-1.816h-2.094v1.737q0,.192-.143.192h-.7q-.149,0-.149-.192v-5.658q0-.262.194-.262Zm-2.684,3.117h2.483a.532.532,0,0,0,.467-.192,1.016,1.016,0,0,0,.136-.585v-.367a1.016,1.016,0,0,0-.136-.585.533.533,0,0,0-.467-.192h-2.4c-.056,0-.084.035-.084.1Z" transform="translate(-294.597 -633.445)" fill="#fff"/>
      <path id="Path_15816" data-name="Path 15816" d="M378.271,633.445q.149,0,.149.192v.83q0,.192-.149.192h-2.833a1.3,1.3,0,0,0-.418.057.542.542,0,0,0-.266.192.844.844,0,0,0-.139.367,3.532,3.532,0,0,0-.039.572v.087h3.662c.1,0,.143.064.143.192v.69q0,.192-.143.192h-3.662v.148a3.528,3.528,0,0,0,.039.572.841.841,0,0,0,.139.367.54.54,0,0,0,.266.192,1.3,1.3,0,0,0,.418.057h2.833c.1,0,.149.064.149.192v.83q0,.192-.149.192h-2.852a2.513,2.513,0,0,1-.836-.122,1.219,1.219,0,0,1-.561-.4,1.772,1.772,0,0,1-.318-.716,4.877,4.877,0,0,1-.1-1.07v-1.5a4.82,4.82,0,0,1,.1-1.065,1.771,1.771,0,0,1,.318-.711,1.246,1.246,0,0,1,.561-.4,2.428,2.428,0,0,1,.836-.127Z" transform="translate(-314.609 -633.445)" fill="#fff"/>
      <path id="Path_15817" data-name="Path 15817" d="M400.409,633.445a.64.64,0,0,1,.415.135,1.346,1.346,0,0,1,.331.528l2.146,5.248a.238.238,0,0,1,.016.144c-.011.038-.042.057-.094.057H402.4a.148.148,0,0,1-.149-.113l-.46-1.126h-3.047l-.447,1.126a.155.155,0,0,1-.149.113H397.3c-.056,0-.09-.019-.1-.057a.235.235,0,0,1,.016-.144l2.126-5.248a1.461,1.461,0,0,1,.318-.528.534.534,0,0,1,.363-.135Zm-1.257,3.859h2.23l-1.031-2.558c-.017-.041-.041-.061-.071-.061h-.039c-.03,0-.054.021-.071.061Z" transform="translate(-332.974 -633.445)" fill="#fff"/>
      <path id="Path_15818" data-name="Path 15818" d="M430.552,633.445q.142,0,.142.192v.855c0,.134-.048.2-.142.2h-2.885a1.313,1.313,0,0,0-.418.057.526.526,0,0,0-.262.192.9.9,0,0,0-.139.362,3.24,3.24,0,0,0-.042.576v1.24a3.314,3.314,0,0,0,.042.58.9.9,0,0,0,.139.367.523.523,0,0,0,.262.192,1.306,1.306,0,0,0,.418.057h2.885q.142,0,.142.192v.855q0,.192-.142.192h-2.924a2.514,2.514,0,0,1-.836-.122,1.219,1.219,0,0,1-.561-.4,1.775,1.775,0,0,1-.318-.716,4.875,4.875,0,0,1-.1-1.07v-1.5a4.818,4.818,0,0,1,.1-1.065,1.774,1.774,0,0,1,.318-.711,1.247,1.247,0,0,1,.561-.4,2.429,2.429,0,0,1,.836-.127Z" transform="translate(-355.247 -633.445)" fill="#fff"/>
      <path id="Path_15819" data-name="Path 15819" d="M451.817,633.445q.142,0,.142.192v2.27h3.034v-2.27q0-.192.143-.192h.7q.149,0,.149.192v5.728q0,.192-.149.192h-.7q-.143,0-.143-.192v-2.322H451.96v2.322q0,.192-.142.192h-.7q-.149,0-.149-.192v-5.728q0-.192.149-.192Z" transform="translate(-374.827 -633.445)" fill="#fff"/>
      <path id="Path_15820" data-name="Path 15820" d="M491.22,633.445q.149,0,.149.192v.855c0,.134-.05.2-.149.2h-2.035v4.671q0,.192-.143.192h-.707q-.143,0-.142-.192v-4.671h-2.035c-.1,0-.149-.067-.149-.2v-.855c0-.128.049-.192.149-.192Z" transform="translate(-402.102 -633.445)" fill="#fff"/>
      <path id="Path_15821" data-name="Path 15821" d="M513.649,633.445q.143,0,.143.192v2.27h3.034v-2.27q0-.192.143-.192h.7q.149,0,.149.192v5.728q0,.192-.149.192h-.7q-.143,0-.143-.192v-2.322h-3.034v2.322q0,.192-.143.192h-.7c-.1,0-.149-.064-.149-.192v-5.728c0-.128.049-.192.149-.192Z" transform="translate(-422.956 -633.445)" fill="#fff"/>
      <path id="Path_15822" data-name="Path 15822" d="M543.732,633.445q.149,0,.149.192v.83q0,.192-.149.192H540.9a1.3,1.3,0,0,0-.418.057.542.542,0,0,0-.266.192.845.845,0,0,0-.139.367,3.533,3.533,0,0,0-.039.572v.087H543.7c.1,0,.143.064.143.192v.69q0,.192-.143.192h-3.662v.148a3.528,3.528,0,0,0,.039.572.843.843,0,0,0,.139.367.54.54,0,0,0,.266.192,1.3,1.3,0,0,0,.418.057h2.833c.1,0,.149.064.149.192v.83q0,.192-.149.192H540.88a2.513,2.513,0,0,1-.836-.122,1.22,1.22,0,0,1-.561-.4,1.776,1.776,0,0,1-.318-.716,4.894,4.894,0,0,1-.1-1.07v-1.5a4.836,4.836,0,0,1,.1-1.065,1.775,1.775,0,0,1,.318-.711,1.247,1.247,0,0,1,.561-.4,2.428,2.428,0,0,1,.836-.127Z" transform="translate(-443.4 -633.445)" fill="#fff"/>
      <path id="Path_15823" data-name="Path 15823" d="M577.913,633.445q.149,0,.149.192v.855c0,.134-.05.2-.149.2h-2.035v4.671q0,.192-.142.192h-.707c-.1,0-.143-.064-.143-.192v-4.671H572.85c-.1,0-.149-.067-.149-.2v-.855q0-.192.149-.192Z" transform="translate(-469.582 -633.445)" fill="#fff"/>
      <path id="Path_15824" data-name="Path 15824" d="M602.492,633.445a2.458,2.458,0,0,1,.84.127,1.247,1.247,0,0,1,.564.4,1.742,1.742,0,0,1,.314.711,4.978,4.978,0,0,1,.1,1.065v1.5a5.037,5.037,0,0,1-.1,1.07,1.744,1.744,0,0,1-.314.716,1.22,1.22,0,0,1-.564.4,2.545,2.545,0,0,1-.84.122h-2a2.513,2.513,0,0,1-.836-.122,1.219,1.219,0,0,1-.561-.4,1.776,1.776,0,0,1-.318-.716,4.878,4.878,0,0,1-.1-1.07v-1.5a4.82,4.82,0,0,1,.1-1.065,1.775,1.775,0,0,1,.318-.711,1.247,1.247,0,0,1,.561-.4,2.428,2.428,0,0,1,.836-.127Zm-2.826,3.711a3.254,3.254,0,0,0,.042.572.9.9,0,0,0,.139.367.521.521,0,0,0,.262.192,1.3,1.3,0,0,0,.418.057h1.925a1.3,1.3,0,0,0,.418-.057.523.523,0,0,0,.263-.192.9.9,0,0,0,.139-.367,3.281,3.281,0,0,0,.042-.572v-1.309a3.285,3.285,0,0,0-.042-.572.908.908,0,0,0-.139-.367.525.525,0,0,0-.263-.192,1.3,1.3,0,0,0-.418-.057h-1.925a1.3,1.3,0,0,0-.418.057.523.523,0,0,0-.262.192.9.9,0,0,0-.139.367,3.258,3.258,0,0,0-.042.572Z" transform="translate(-489.799 -633.445)" fill="#fff"/>
      <path id="Path_15825" data-name="Path 15825" d="M631.394,633.445a1.224,1.224,0,0,1,1.07.454,2.309,2.309,0,0,1,.324,1.345v.646a2.308,2.308,0,0,1-.324,1.344,1.222,1.222,0,0,1-1.07.454h-2.684v1.676q0,.192-.143.192h-.7c-.1,0-.149-.064-.149-.192v-5.658q0-.262.194-.262Zm-2.684,3.091h2.483a.532.532,0,0,0,.467-.192,1.016,1.016,0,0,0,.136-.585v-.332a1.016,1.016,0,0,0-.136-.585.533.533,0,0,0-.467-.192h-2.4c-.056,0-.084.035-.084.105Z" transform="translate(-512.407 -633.445)" fill="#fff"/>
    </g>
    <g id="Group_3400" data-name="Group 3400" transform="translate(163.066 379.8)">
      <path id="Path_15826" data-name="Path 15826" d="M401.873,451.306q.41,0,.41.462v2.157q0,.462-.41.462h-6.051a4.337,4.337,0,0,0-1.206.141,1.592,1.592,0,0,0-.762.462,1.853,1.853,0,0,0-.4.873,6.8,6.8,0,0,0-.114,1.348v7.627q0,.565-.5.565h-2.229q-.524,0-.523-.565v-8.321a9.019,9.019,0,0,1,.273-2.376,3.6,3.6,0,0,1,.9-1.618,3.733,3.733,0,0,1,1.661-.925,9.579,9.579,0,0,1,2.582-.3Z" transform="translate(-390.089 -446.093)" fill="#fff"/>
      <path id="Path_15827" data-name="Path 15827" d="M461.661,451.306a9.608,9.608,0,0,1,2.571.3,3.739,3.739,0,0,1,1.672.925,3.605,3.605,0,0,1,.9,1.618,9.019,9.019,0,0,1,.273,2.376v6.831a5.327,5.327,0,0,1-.08,1.014,1.393,1.393,0,0,1-.273.629,1,1,0,0,1-.512.321,3.074,3.074,0,0,1-.819.09H454.563a5.471,5.471,0,0,1-1.672-.218,2.509,2.509,0,0,1-1.081-.655,2.481,2.481,0,0,1-.58-1.13,6.937,6.937,0,0,1-.171-1.644v-1.233a5.448,5.448,0,0,1,.171-1.425,2.478,2.478,0,0,1,.58-1.066,2.515,2.515,0,0,1,1.081-.655,5.477,5.477,0,0,1,1.672-.218h9.259v-.488a4.23,4.23,0,0,0-.114-1.053,1.5,1.5,0,0,0-.387-.706,1.657,1.657,0,0,0-.751-.4,4.857,4.857,0,0,0-1.228-.129h-9.509q-.41,0-.41-.462v-2.157q0-.462.41-.462Zm1.5,11.274a.608.608,0,0,0,.512-.193,1.16,1.16,0,0,0,.148-.681v-2.26H455.5a1.274,1.274,0,0,0-.99.321,1.371,1.371,0,0,0-.284.937v.539a1.5,1.5,0,0,0,.284,1.014,1.272,1.272,0,0,0,.99.321Z" transform="translate(-437.547 -446.093)" fill="#fff"/>
      <path id="Path_15828" data-name="Path 15828" d="M536.749,428.014q.5,0,.5.565v4.6h8.531a9.61,9.61,0,0,1,2.571.3,3.741,3.741,0,0,1,1.672.925,3.607,3.607,0,0,1,.9,1.618,9.021,9.021,0,0,1,.273,2.376v3.7a9.02,9.02,0,0,1-.273,2.376,3.37,3.37,0,0,1-2.571,2.53,10,10,0,0,1-2.571.283h-6.37a9.968,9.968,0,0,1-2.582-.283,3.378,3.378,0,0,1-2.559-2.53,9.015,9.015,0,0,1-.273-2.376V428.579q0-.565.523-.565Zm.5,8.244v5.111a6.75,6.75,0,0,0,.114,1.361,1.844,1.844,0,0,0,.4.86,1.589,1.589,0,0,0,.762.462,4.328,4.328,0,0,0,1.206.141h5.733a4.431,4.431,0,0,0,1.228-.141,1.591,1.591,0,0,0,.762-.462,1.852,1.852,0,0,0,.4-.86,6.768,6.768,0,0,0,.114-1.361v-2.286a6.811,6.811,0,0,0-.114-1.348,1.863,1.863,0,0,0-.4-.873,1.6,1.6,0,0,0-.762-.462,4.439,4.439,0,0,0-1.228-.141Z" transform="translate(-502.103 -427.963)" fill="#fff"/>
      <path id="Path_15829" data-name="Path 15829" d="M626.153,428.014q.5,0,.5.565v4.6h8.531a9.612,9.612,0,0,1,2.571.3,3.741,3.741,0,0,1,1.672.925,3.607,3.607,0,0,1,.9,1.618,9.017,9.017,0,0,1,.273,2.376v3.7a9.015,9.015,0,0,1-.273,2.376,3.371,3.371,0,0,1-2.571,2.53,10,10,0,0,1-2.571.283h-6.37a9.969,9.969,0,0,1-2.582-.283,3.377,3.377,0,0,1-2.559-2.53,9.007,9.007,0,0,1-.273-2.376V428.579q0-.565.523-.565Zm.5,8.244v5.111a6.75,6.75,0,0,0,.114,1.361,1.842,1.842,0,0,0,.4.86,1.588,1.588,0,0,0,.762.462,4.33,4.33,0,0,0,1.206.141h5.733a4.432,4.432,0,0,0,1.228-.141,1.591,1.591,0,0,0,.762-.462,1.849,1.849,0,0,0,.4-.86,6.766,6.766,0,0,0,.114-1.361v-2.286a6.809,6.809,0,0,0-.114-1.348,1.86,1.86,0,0,0-.4-.873,1.6,1.6,0,0,0-.762-.462,4.441,4.441,0,0,0-1.228-.141Z" transform="translate(-571.693 -427.963)" fill="#fff"/>
      <path id="Path_15830" data-name="Path 15830" d="M721.454,451.306a9.608,9.608,0,0,1,2.571.3,3.74,3.74,0,0,1,1.672.925,3.606,3.606,0,0,1,.9,1.618,9.016,9.016,0,0,1,.273,2.376v6.831a5.33,5.33,0,0,1-.08,1.014,1.4,1.4,0,0,1-.273.629,1,1,0,0,1-.512.321,3.075,3.075,0,0,1-.819.09H714.356a5.473,5.473,0,0,1-1.672-.218,2.508,2.508,0,0,1-1.08-.655,2.481,2.481,0,0,1-.58-1.13,6.951,6.951,0,0,1-.171-1.644v-1.233a5.46,5.46,0,0,1,.171-1.425,2.478,2.478,0,0,1,.58-1.066,2.514,2.514,0,0,1,1.08-.655,5.479,5.479,0,0,1,1.672-.218h9.259v-.488a4.23,4.23,0,0,0-.114-1.053,1.5,1.5,0,0,0-.387-.706,1.66,1.66,0,0,0-.751-.4,4.858,4.858,0,0,0-1.229-.129h-9.509q-.41,0-.409-.462v-2.157q0-.462.409-.462Zm1.5,11.274a.608.608,0,0,0,.512-.193,1.159,1.159,0,0,0,.148-.681v-2.26h-8.326a1.274,1.274,0,0,0-.99.321,1.372,1.372,0,0,0-.284.937v.539a1.5,1.5,0,0,0,.284,1.014,1.272,1.272,0,0,0,.99.321Z" transform="translate(-639.765 -446.093)" fill="#fff"/>
      <path id="Path_15831" data-name="Path 15831" d="M807.142,433.176v-4.6q0-.565.5-.565h2.229q.5,0,.5.565v13.509a9.01,9.01,0,0,1-.273,2.376,3.37,3.37,0,0,1-2.571,2.53,10,10,0,0,1-2.571.283h-6.37a9.969,9.969,0,0,1-2.582-.283,3.378,3.378,0,0,1-2.559-2.53,9.015,9.015,0,0,1-.273-2.376v-3.7a9.017,9.017,0,0,1,.273-2.376,3.6,3.6,0,0,1,.9-1.618,3.734,3.734,0,0,1,1.661-.925,9.581,9.581,0,0,1,2.582-.3Zm-2.5,11.018a4.43,4.43,0,0,0,1.228-.141,1.59,1.59,0,0,0,.762-.462,1.848,1.848,0,0,0,.4-.86,6.771,6.771,0,0,0,.114-1.361v-5.111h-8.235a4.337,4.337,0,0,0-1.206.141,1.594,1.594,0,0,0-.762.462,1.856,1.856,0,0,0-.4.873,6.8,6.8,0,0,0-.114,1.348v2.286a6.755,6.755,0,0,0,.114,1.361,1.845,1.845,0,0,0,.4.86,1.589,1.589,0,0,0,.762.462,4.329,4.329,0,0,0,1.206.141Z" transform="translate(-703.842 -427.963)" fill="#fff"/>
      <path id="Path_15832" data-name="Path 15832" d="M886.254,427.782q.5,0,.5.565v2.44q0,.591-.5.591h-2.229q-.524,0-.523-.591v-2.44q0-.565.523-.565Zm0,5.213q.5,0,.5.591V446.53q0,.565-.5.565h-2.229q-.5,0-.5-.565V433.586q0-.59.5-.591Z" transform="translate(-774.15 -427.782)" fill="#fff"/>
      <path id="Path_15833" data-name="Path 15833" d="M919.557,451.306a9.607,9.607,0,0,1,2.57.3,3.74,3.74,0,0,1,1.672.925,3.606,3.606,0,0,1,.9,1.618,9.013,9.013,0,0,1,.273,2.376v6.831a5.335,5.335,0,0,1-.079,1.014,1.4,1.4,0,0,1-.273.629,1,1,0,0,1-.512.321,3.074,3.074,0,0,1-.819.09H912.459a5.473,5.473,0,0,1-1.672-.218,2.511,2.511,0,0,1-1.081-.655,2.48,2.48,0,0,1-.58-1.13,6.948,6.948,0,0,1-.171-1.644v-1.233a5.457,5.457,0,0,1,.171-1.425,2.478,2.478,0,0,1,.58-1.066,2.517,2.517,0,0,1,1.081-.655,5.479,5.479,0,0,1,1.672-.218h9.259v-.488a4.23,4.23,0,0,0-.114-1.053,1.5,1.5,0,0,0-.387-.706,1.657,1.657,0,0,0-.751-.4,4.857,4.857,0,0,0-1.228-.129h-9.509q-.41,0-.41-.462v-2.157q0-.462.41-.462Zm1.5,11.274a.609.609,0,0,0,.512-.193,1.161,1.161,0,0,0,.148-.681v-2.26h-8.326a1.274,1.274,0,0,0-.99.321,1.371,1.371,0,0,0-.284.937v.539a1.5,1.5,0,0,0,.284,1.014,1.272,1.272,0,0,0,.99.321Z" transform="translate(-793.964 -446.093)" fill="#fff"/>
    </g>
    <g id="Group_3401" data-name="Group 3401" transform="translate(98.428 366.139)">
      <path id="Path_15834" data-name="Path 15834" d="M290.893,393.307l-3.217,5.813-5.114,9.245a2.137,2.137,0,0,0,0,2.109,1.962,1.962,0,0,0,1.752,1.056h17.081a1.965,1.965,0,0,0,1.751-1.056,2.14,2.14,0,0,0,0-2.111l-6.2-11.206.012-.006-1.162-2.1-1.968,3.558,5.182,9.367h-12.32l6.159-11.134v0l1.968-3.558h0l3.072-5.552a2.964,2.964,0,0,0,2.339-1.546,3.181,3.181,0,0,0-1.089-4.246,2.911,2.911,0,0,0-4.07,1.138,3.221,3.221,0,0,0-.113,2.885l-2.095,3.788Zm5.639-9.346a1.258,1.258,0,0,1,1.758-.491,1.377,1.377,0,0,1,.472,1.836,1.258,1.258,0,0,1-1.758.49A1.376,1.376,0,0,1,296.532,383.961Z" transform="translate(-241.537 -378.113)" fill="#fff"/>
      <path id="Path_15835" data-name="Path 15835" d="M187.793,401.253a3.051,3.051,0,0,0-2.567,1.482l-4.394.007-4.125,0-6.742.007-2.473,0-2.433,0h-1.431l-3.418,0a11.917,11.917,0,0,1-2.253,3.259c-.143.15-.291.3-.441.437a11.9,11.9,0,0,1-8.205,3.285H116.7a13.746,13.746,0,0,1-9.958-4.28c-9.659-10.111-1.849-27.728,14.428-24.316,2.564-6.388,6.677-10.606,13.654-10.606a13.621,13.621,0,0,1,6.6,1.716c.081.045.162.09.243.137l-.063.113-12.223,22.027a3,3,0,0,0-2.372,1.566,3.224,3.224,0,0,0,1.1,4.3,2.952,2.952,0,0,0,4.123-1.151,3.278,3.278,0,0,0,.119-2.914l7.9-14.246,4.621-8.342.138-.25h0l-.138.25-.389.7,2.941,5.316,1.993-3.6-1.337-2.418-.138-.25-1.466-2.65a6.508,6.508,0,0,0-1.277-1.317c-.036-.027-.233-.168-.479-.335a17.671,17.671,0,0,0-9.908-3.06,18.263,18.263,0,0,0-16.158,10.111l-.119-.062c-.656-.062-1.253-.062-1.848-.062-16.04,0-24.446,20.408-12.939,32.442a18.159,18.159,0,0,0,12.939,5.583h32.612a16.093,16.093,0,0,0,11.627-5.026,16.615,16.615,0,0,0,1.532-1.845q.22-.307.424-.622l1.878,0,9.891-.012h0l4.127-.006h0l6.44-.005a3.053,3.053,0,0,0,2.573,1.476,3.443,3.443,0,0,0-.008-6.856Zm-57.04-2.9a1.275,1.275,0,0,1-1.781.5,1.394,1.394,0,0,1-.478-1.859,1.278,1.278,0,0,1,1.782-.5A1.4,1.4,0,0,1,130.754,398.358Zm57.045,7.806a1.489,1.489,0,1,1,1.347-1.484A1.421,1.421,0,0,1,187.8,406.164Z" transform="translate(-98.428 -366.139)" fill="#fff"/>
    </g>
    <path id="Path_15836" data-name="Path 15836" d="M407.749,597.734v0h-1.41c-.086,0-.173,0-.257,0Z" transform="translate(-239.471 -180.268)" fill="#fff"/>
    <g id="Group_3402" data-name="Group 3402" transform="translate(163.173 406.943)">
      <path id="Path_15837" data-name="Path 15837" d="M429.276,565.017q0,1.995-1.188,2H393.77a1.25,1.25,0,0,1-.785-.864,1.47,1.47,0,0,1-.069-.468q0-1.323,1.793-1.323h.392v-2.453h-.35q-4.179,0-4.18,3.994a4.812,4.812,0,0,0,.27,1.671.371.371,0,0,1,.018.044q.808,1.975,3.592,2.059h33.636q3.574,0,3.575-4.656v-3.333h-2.387Z" transform="translate(-390.572 -559.151)" fill="#fff"/>
      <path id="Path_15838" data-name="Path 15838" d="M484.578,602.1a1.09,1.09,0,0,0-.844.385,1.373,1.373,0,0,0-.355.951,1.335,1.335,0,0,0,.355.94,1.118,1.118,0,0,0,1.687,0,1.336,1.336,0,0,0,.355-.94,1.374,1.374,0,0,0-.355-.951A1.09,1.09,0,0,0,484.578,602.1Z" transform="translate(-462.812 -590.611)" fill="#fff"/>
      <path id="Path_15839" data-name="Path 15839" d="M611.2,556.342q0,1.995-1.188,2h-9.058A5.845,5.845,0,0,0,601.1,557q0-3.993-4.178-3.994h-2.857v2.67h.009l1.871,2.659h-11.6V553.02h-2.385v7.54a1.513,1.513,0,0,1-.375,1.026,1.207,1.207,0,0,1-1.839,0l-.029-.044-1.744,1.826.038.042.049.055a3.42,3.42,0,0,0,5.213,0A4.106,4.106,0,0,0,584.326,561H610.01q3.574,0,3.575-4.656v-6.088H611.2Zm-13.053,1.74-1.678-2.4h.452q1.792,0,1.791,1.323A1.153,1.153,0,0,1,598.144,558.082Z" transform="translate(-536.44 -550.254)" fill="#fff"/>
      <rect id="Rectangle_2986" data-name="Rectangle 2986" width="2.386" height="10.743" transform="translate(78.322 0)" fill="#fff"/>
      <path id="Path_15840" data-name="Path 15840" d="M823.217,602.873a1.1,1.1,0,0,0-.843.4,1.452,1.452,0,0,0,0,1.879,1.128,1.128,0,0,0,1.7,0,1.452,1.452,0,0,0,0-1.879A1.107,1.107,0,0,0,823.217,602.873Z" transform="translate(-726.409 -591.211)" fill="#fff"/>
      <path id="Path_15841" data-name="Path 15841" d="M785.642,556.343v-3.332h-2.386v3.332q0,1.986-1.2,1.986h-1.917v.011h-7.2q-1.2,0-1.2-2v-6.087H769.36v6.087q0,4.656,3.584,4.656h9.114Q785.642,561,785.642,556.343Z" transform="translate(-685.412 -550.256)" fill="#fff"/>
      <path id="Path_15842" data-name="Path 15842" d="M835.552,602.969a1.078,1.078,0,0,0-.844.4,1.423,1.423,0,0,0,0,1.879,1.118,1.118,0,0,0,1.687,0,1.452,1.452,0,0,0,0-1.879A1.077,1.077,0,0,0,835.552,602.969Z" transform="translate(-736.002 -591.286)" fill="#fff"/>
      <path id="Path_15843" data-name="Path 15843" d="M849.9,562.687h-.393v2.67h.393q1.792,0,1.792,1.324t-1.792,1.335h-1.409v2.659H849.9q4.178,0,4.178-3.994T849.9,562.687Z" transform="translate(-747.009 -559.932)" fill="#fff"/>
      <path id="Path_15844" data-name="Path 15844" d="M898.375,553.011v3.332q0,2-1.2,2H881.613q-1.2,0-1.2-2v-6.087h-2.386v6.087q0,4.656,3.584,4.656h15.564q3.584,0,3.584-4.656v-3.332Z" transform="translate(-769.998 -550.256)" fill="#fff"/>
      <path id="Path_15845" data-name="Path 15845" d="M968.912,602.1a1.09,1.09,0,0,0-.843.385,1.373,1.373,0,0,0-.355.951,1.335,1.335,0,0,0,.355.94,1.118,1.118,0,0,0,1.687,0,1.356,1.356,0,0,0,.345-.94,1.4,1.4,0,0,0-.345-.951A1.09,1.09,0,0,0,968.912,602.1Z" transform="translate(-839.807 -590.611)" fill="#fff"/>
    </g>
    <rect id="Rectangle_2987" data-name="Rectangle 2987" width="72.005" height="1.867" transform="translate(222.068 429.403)" fill="#fff"/>
  </g>
</svg>
